<?xml version="1.0" encoding="UTF-8"?>
<svg id="Layer_2" xmlns="http://www.w3.org/2000/svg" viewBox="0 0 324.7 79.69">
  <defs>
    <style>
      .cls-1 {
        fill-rule: evenodd;
      }

      .cls-1, .cls-2 {
        fill: #003764;
      }
    </style>
  </defs>
  <g id="Layer_1-2" data-name="Layer_1">
    <g>
      <g>
        <path class="cls-2" d="M107.42,47.79v-13.74h-14.21v13.74h-8.82V13.59h8.82v12.77h14.21v-12.77h8.82v34.2h-8.82Z"/>
        <path class="cls-2" d="M122.38,47.79V13.59h25.08v7.44h-16.26v5.69h14.1v7.49h-14.1v6.15h16.26v7.44h-25.08Z"/>
        <path class="cls-2" d="M171.66,47.79l-5.74-11.59h-4.51v11.59h-8.82V13.59h17.13c7.59,0,11.9,5.02,11.9,11.38,0,5.95-3.64,9.13-6.82,10.26l6.97,12.56h-10.1ZM168.38,21.03h-6.97v7.69h6.97c2.31,0,4.26-1.49,4.26-3.85s-1.95-3.85-4.26-3.85Z"/>
        <path class="cls-2" d="M186.47,47.79V13.59h8.82v34.2h-8.82Z"/>
        <path class="cls-2" d="M209.08,47.79v-26.51h-9.59v-7.69h27.95v7.69h-9.54v26.51h-8.82Z"/>
        <path class="cls-2" d="M252.1,47.79l-1.74-5.18h-14.2l-1.74,5.18h-9.59l12.87-34.2h11.08l12.92,34.2h-9.59ZM243.23,21.28l-4.77,13.9h9.59l-4.82-13.9Z"/>
        <path class="cls-2" d="M279.33,13.03c7.49,0,12.1,3.69,14.62,7.95l-7.38,3.9c-1.38-2.26-4-4.05-7.23-4.05-5.59,0-9.54,4.31-9.54,9.9s3.95,9.9,9.54,9.9c2.67,0,5.08-.92,6.46-2.05v-2.87h-7.85v-7.33h16.51v13.38c-3.69,4.05-8.67,6.67-15.13,6.67-10.2,0-18.51-6.82-18.51-17.69s8.31-17.69,18.51-17.69Z"/>
        <path class="cls-2" d="M299.63,47.79V13.59h25.08v7.44h-16.26v5.69h14.1v7.49h-14.1v6.15h16.26v7.44h-25.08Z"/>
      </g>
      <path class="cls-1" d="M63.87,0H7.72C3.45,0,0,3.45,0,7.72v64.26c0,4.26,3.45,7.72,7.72,7.72h56.16c4.26,0,7.72-3.45,7.72-7.72V7.72c0-4.26-3.45-7.72-7.72-7.72ZM58.43,66.15h-23.87c.14-.05.29-.1.43-.15,7.59-2.78,11.09-9.46,11.29-21.42-4.67.94-8.38,2.17-11.29,3.62-5.4,2.68-9.89,8.1-9.27,11.83,2.13-2.86,4.86-4.51,9.27-7.07.81-.47,1.67-.97,2.6-1.51-.93.83-1.8,1.6-2.6,2.32-4.63,4.14-7.26,6.74-9.68,12.39h-.02s-12.13,0-12.13,0V13.53h12.15v20.38h20.97V13.53h12.15v52.62Z"/>
      <g>
        <path class="cls-2" d="M84.41,55.55h2.13v8.13h4.23v1.88h-6.36v-10Z"/>
        <path class="cls-2" d="M100.54,63.83h-4.47l-.63,1.72h-2.34l3.87-10h2.67l3.85,10h-2.33l-.63-1.72ZM96.64,61.99h3.31l-1.65-4.59-1.67,4.59Z"/>
        <path class="cls-2" d="M108.46,58.84v6.72h-2.13v-10h2.19l4.63,6.48v-6.48h2.13v10h-2.06l-4.77-6.72Z"/>
        <path class="cls-2" d="M119.17,55.55h3.94c3.14,0,5.31,2,5.31,5.01s-2.17,5-5.31,5h-3.94v-10ZM123.11,63.68c1.98,0,3.14-1.42,3.14-3.12s-1.08-3.13-3.14-3.13h-1.81v6.25h1.81Z"/>
        <path class="cls-2" d="M132.32,62.53c.71.74,1.8,1.35,3.18,1.35,1.17,0,1.74-.56,1.74-1.12,0-.75-.87-1-2.02-1.28-1.63-.38-3.73-.83-3.73-3.06,0-1.67,1.44-3.01,3.79-3.01,1.59,0,2.91.48,3.9,1.39l-1.19,1.56c-.81-.75-1.89-1.09-2.86-1.09s-1.47.42-1.47,1.02c0,.67.84.88,2,1.15,1.65.38,3.75.87,3.75,3.09,0,1.83-1.31,3.21-4,3.21-1.92,0-3.3-.64-4.25-1.59l1.17-1.62Z"/>
        <path class="cls-2" d="M142.27,60.56c0-3.07,2.33-5.17,5.25-5.17,2.28,0,3.55,1.2,4.26,2.45l-1.83.9c-.42-.81-1.32-1.45-2.43-1.45-1.74,0-3.06,1.39-3.06,3.28s1.32,3.29,3.06,3.29c1.11,0,2.01-.63,2.43-1.46l1.83.88c-.72,1.25-1.98,2.46-4.26,2.46-2.92,0-5.25-2.1-5.25-5.17Z"/>
        <path class="cls-2" d="M161.23,63.83h-4.47l-.63,1.72h-2.34l3.87-10h2.67l3.85,10h-2.33l-.63-1.72ZM157.33,61.99h3.31l-1.65-4.59-1.67,4.59Z"/>
        <path class="cls-2" d="M167.02,55.55h4.68c2.17,0,3.36,1.47,3.36,3.23s-1.2,3.19-3.36,3.19h-2.55v3.58h-2.13v-10ZM171.41,57.38h-2.26v2.76h2.26c.84,0,1.47-.54,1.47-1.38s-.63-1.38-1.47-1.38Z"/>
        <path class="cls-2" d="M178.28,55.55h7.08v1.83h-4.95v2.17h4.84v1.83h-4.84v2.33h4.95v1.84h-7.08v-10Z"/>
        <path class="cls-2" d="M195.16,62.53c.71.74,1.8,1.35,3.18,1.35,1.17,0,1.74-.56,1.74-1.12,0-.75-.87-1-2.02-1.28-1.64-.38-3.74-.83-3.74-3.06,0-1.67,1.44-3.01,3.79-3.01,1.59,0,2.91.48,3.9,1.39l-1.18,1.56c-.81-.75-1.89-1.09-2.87-1.09s-1.47.42-1.47,1.02c0,.67.84.88,2,1.15,1.65.38,3.75.87,3.75,3.09,0,1.83-1.3,3.21-4,3.21-1.92,0-3.3-.64-4.25-1.59l1.17-1.62Z"/>
        <path class="cls-2" d="M205.58,55.55h2.16v5.94c0,1.39.77,2.35,2.33,2.35s2.29-.96,2.29-2.35v-5.94h2.16v6c0,2.49-1.42,4.18-4.46,4.18s-4.48-1.71-4.48-4.17v-6.01Z"/>
        <path class="cls-2" d="M218.41,55.55h4.68c2.17,0,3.36,1.47,3.36,3.23s-1.2,3.19-3.36,3.19h-2.55v3.58h-2.13v-10ZM222.8,57.38h-2.26v2.76h2.26c.84,0,1.47-.54,1.47-1.38s-.63-1.38-1.47-1.38Z"/>
        <path class="cls-2" d="M229.67,55.55h4.68c2.17,0,3.36,1.47,3.36,3.23s-1.2,3.19-3.36,3.19h-2.55v3.58h-2.13v-10ZM234.07,57.38h-2.26v2.76h2.26c.84,0,1.47-.54,1.47-1.38s-.63-1.38-1.47-1.38Z"/>
        <path class="cls-2" d="M240.94,55.55h2.13v8.13h4.23v1.88h-6.36v-10Z"/>
        <path class="cls-2" d="M251.57,61.46l-3.86-5.91h2.43l2.49,4.02,2.46-4.02h2.43l-3.82,5.91v4.09h-2.13v-4.09Z"/>
        <path class="cls-2" d="M270.95,55.39c2.07,0,3.38,1,4.14,2.19l-1.77.96c-.47-.71-1.32-1.26-2.37-1.26-1.82,0-3.13,1.39-3.13,3.28s1.32,3.29,3.13,3.29c.92,0,1.72-.38,2.16-.76v-1.21h-2.67v-1.83h4.77v3.82c-1.02,1.14-2.45,1.89-4.26,1.89-2.92,0-5.33-2.04-5.33-5.19s2.4-5.17,5.33-5.17Z"/>
        <path class="cls-2" d="M282.5,61.97h-1.56v3.58h-2.13v-10h4.68c2.08,0,3.36,1.37,3.36,3.23s-1.11,2.71-2.19,2.97l2.25,3.81h-2.45l-1.96-3.58ZM283.18,57.38h-2.23v2.76h2.23c.86,0,1.5-.54,1.5-1.38s-.64-1.38-1.5-1.38Z"/>
        <path class="cls-2" d="M295.1,55.39c3.03,0,5.24,2.16,5.24,5.17s-2.21,5.17-5.24,5.17-5.22-2.16-5.22-5.17,2.21-5.17,5.22-5.17ZM295.1,57.28c-1.84,0-3.03,1.41-3.03,3.28s1.18,3.29,3.03,3.29,3.04-1.42,3.04-3.29-1.2-3.28-3.04-3.28Z"/>
        <path class="cls-2" d="M303.74,55.55h2.16v5.94c0,1.39.77,2.35,2.33,2.35s2.29-.96,2.29-2.35v-5.94h2.16v6c0,2.49-1.42,4.18-4.46,4.18s-4.48-1.71-4.48-4.17v-6.01Z"/>
        <path class="cls-2" d="M316.57,55.55h4.68c2.17,0,3.36,1.47,3.36,3.23s-1.2,3.19-3.36,3.19h-2.55v3.58h-2.13v-10ZM320.96,57.38h-2.26v2.76h2.26c.84,0,1.47-.54,1.47-1.38s-.63-1.38-1.47-1.38Z"/>
      </g>
    </g>
  </g>
</svg>